<svg width="530" height="239" viewBox="0 0 530 239" fill="none" xmlns="http://www.w3.org/2000/svg">
<path d="M493.705 71.344C513.756 71.344 530 88.6004 530 111.266V176.428H497.766V116.674C497.766 107.402 491.167 100.448 481.776 100.448C472.385 100.448 464.77 107.402 464.77 116.674V176.428H432.282V73.4044H464.77V86.0248C471.877 77.0103 482.029 71.344 493.705 71.344Z" fill="#326789"/>
<path d="M363.039 178.489C329.028 178.489 306.439 155.823 306.439 124.916C306.439 94.0092 329.028 71.344 363.039 71.344C397.05 71.344 419.385 94.0092 419.385 124.916C419.385 155.823 397.05 178.489 363.039 178.489ZM363.039 149.384C376.745 149.127 387.151 138.825 387.151 124.916C387.151 111.008 376.745 100.706 363.039 100.448C349.079 100.706 338.927 111.008 338.927 124.916C338.927 138.825 349.079 149.127 363.039 149.384Z" fill="#326789"/>
<path d="M300.276 149.642H304.845V176.428C302.56 177.458 299.515 178.489 296.215 178.489C282.509 178.489 271.341 171.535 264.996 160.975C256.874 171.792 244.945 178.489 230.224 178.489C202.051 178.489 179.969 154.793 179.969 124.916C179.969 95.0394 202.051 71.344 230.224 71.344C241.899 71.344 251.544 75.4649 259.158 82.419V73.4044H291.393V139.597C291.393 148.097 295.961 149.642 300.276 149.642ZM236.569 149.384C249.767 149.384 260.681 138.567 260.681 124.916C260.681 111.266 249.767 100.448 236.569 100.448C223.117 100.448 212.457 111.266 212.457 124.916C212.457 138.567 223.117 149.384 236.569 149.384Z" fill="#326789"/>
<path d="M134.766 176.428V0H167.254V176.428H134.766Z" fill="#326789"/>
<path d="M114.469 73.4044L114.723 177.458C114.723 215.577 92.6415 238.5 55.5849 238.5C28.9346 238.5 9.89869 226.395 1.52287 205.275L31.2189 193.17C35.0261 203.472 43.9095 209.911 55.5849 209.911C72.0827 209.911 82.489 198.321 82.489 179.261V165.611C74.1132 173.595 62.9455 178.489 50.2549 178.489C22.0817 178.489 0 154.793 0 124.916C0 94.7819 22.0817 71.344 50.2549 71.344C62.6917 71.344 73.6056 75.98 81.9814 83.7068V73.4044H114.469ZM58.3769 149.384C71.8289 149.384 82.7429 138.567 82.7429 124.916C82.7429 111.266 71.8289 100.448 58.3769 100.448C44.9248 100.448 34.2647 111.266 34.2647 124.916C34.2647 138.567 44.9248 149.384 58.3769 149.384Z" fill="#326789"/>
<path d="M348 44C348 41.2386 350.239 39 353 39H373C375.761 39 378 41.2386 378 44V124C378 126.761 375.761 129 373 129H353C350.239 129 348 126.761 348 124V44Z" fill="#E65C4F"/>
</svg>
