<svg width="113" height="140" viewBox="0 0 113 140" fill="none" xmlns="http://www.w3.org/2000/svg">
<path d="M56.6002 139.489C22.5893 139.489 0 116.823 0 85.9163C0 55.0092 22.5893 32.344 56.6002 32.344C90.611 32.344 112.947 55.0092 112.947 85.9163C112.947 116.823 90.611 139.489 56.6002 139.489ZM56.6002 110.384C70.306 110.127 80.7123 99.8245 80.7123 85.9163C80.7123 72.0081 70.306 61.7057 56.6002 61.4482C42.6405 61.7057 32.488 72.0081 32.488 85.9163C32.488 99.8245 42.6405 110.127 56.6002 110.384Z" fill="#326789"/>
<path d="M41.5612 5C41.5612 2.23858 43.7997 0 46.5612 0H66.5612C69.3226 0 71.5612 2.23858 71.5612 5V85C71.5612 87.7614 69.3226 90 66.5612 90H46.5612C43.7997 90 41.5612 87.7614 41.5612 85V5Z" fill="#E65C4F"/>
</svg>
