<svg xmlns="http://www.w3.org/2000/svg" viewBox="0 0 720 960" preserveAspectRatio="xMidYMid slice" role="img" aria-label="Glaon">
  <defs>
    <linearGradient id="brand-fill" x1="0" y1="0" x2="0.4" y2="1">
      <stop offset="0%" stop-color="#142937" />
      <stop offset="55%" stop-color="#234860" />
      <stop offset="100%" stop-color="#326789" />
    </linearGradient>
    <radialGradient id="warm" cx="0.78" cy="0.22" r="0.55">
      <stop offset="0%" stop-color="#e65c4f" stop-opacity="0.55" />
      <stop offset="60%" stop-color="#e65c4f" stop-opacity="0.12" />
      <stop offset="100%" stop-color="#e65c4f" stop-opacity="0" />
    </radialGradient>
  </defs>
  <rect width="720" height="960" fill="url(#brand-fill)" />
  <rect width="720" height="960" fill="url(#warm)" />
  <g opacity="0.07" fill="#ffffff">
    <path d="M360 540c-37 0-67-27-67-65 0-37 30-65 67-65s67 28 67 65c0 38-30 65-67 65zm0-34c16 0 28-12 28-31s-12-31-28-31-28 12-28 31 12 31 28 31z" transform="translate(0 -60) scale(1.4)" />
    <rect x="408" y="446" width="36" height="108" rx="6" transform="translate(0 -60) scale(1.4)" />
  </g>
  <g fill="none" stroke="rgba(255,255,255,0.08)" stroke-width="1">
    <circle cx="160" cy="780" r="120" />
    <circle cx="160" cy="780" r="180" />
    <circle cx="160" cy="780" r="240" />
  </g>
</svg>
